# xmcd
#
# Track frame offsets: 
#        150
#        22247
#        44617
#        64886
#        88536
#        120865
#        139861
#        176956
#        192014
#        229605
#        255300
#
# Disc length: 3629 seconds
#
# Revision: 0
# Processed by: cddbd v1.5.2PL0 Copyright (c) Steve Scherf et al.
# Submitted via: ExactAudioCopy v0.99pb5
#
DISCID=930e2b0b
DTITLE=The Buddy Whittington Band - A Bag Full Of...Blues
DYEAR=1900
DGENRE=Blues
TTITLE0=Black cat Bone
TTITLE1=Jacksboro Higway
TTITLE2=Maydell
TTITLE3=Runnin'Blue
TTITLE4=Hideaway Medley
TTITLE5=Awestruck And Spellbound
TTITLE6=Sportin'Life
TTITLE7=Tailspin
TTITLE8=Help Me Through The Day
TTITLE9=Pieces and Parts
TTITLE10=You Upsets Me
EXTD=
EXTT0=
EXTT1=
EXTT2=
EXTT3=
EXTT4=
EXTT5=
EXTT6=
EXTT7=
EXTT8=
EXTT9=
EXTT10=
PLAYORDER=
